<?xml version="1.0" standalone="no"?>
<!DOCTYPE svg PUBLIC "-//W3C//DTD SVG 20010904//EN"
 "http://www.w3.org/TR/2001/REC-SVG-20010904/DTD/svg10.dtd">
<svg version="1.0" xmlns="http://www.w3.org/2000/svg"
 width="370.000000pt" height="348.000000pt" viewBox="0 0 370.000000 348.000000"
 preserveAspectRatio="xMidYMid meet">

<g transform="translate(0.000000,348.000000) scale(0.100000,-0.100000)"
fill="#000000" stroke="none">
<path d="M7 3473 c-4 -3 -7 -61 -6 -127 1 -99 3 -115 11 -88 6 17 15 32 19 32
5 0 9 16 9 35 0 24 5 35 15 35 8 0 15 -4 15 -10 0 -24 18 -6 30 30 15 46 44
54 54 16 5 -21 10 -23 33 -17 22 6 28 14 30 37 3 61 2 59 15 46 16 -16 28 -15
28 3 0 13 -20 15 -123 15 -68 0 -127 -3 -130 -7z"/>
<path d="M1558 3463 c-16 -8 -28 -21 -28 -29 0 -7 -9 -14 -20 -14 -15 0 -20
-7 -20 -25 0 -19 -5 -25 -17 -23 -12 2 -19 -4 -21 -18 -2 -12 -12 -24 -23 -27
-11 -3 -19 -14 -19 -25 0 -14 -8 -22 -22 -24 -16 -2 -22 -9 -21 -24 2 -15 -3
-20 -20 -20 -16 1 -21 -4 -19 -16 2 -13 -4 -18 -21 -18 -20 0 -23 -4 -19 -25
3 -20 0 -25 -17 -25 -17 0 -22 -5 -19 -22 2 -16 -2 -22 -11 -20 -8 2 -17 -2
-21 -8 -4 -7 -63 -13 -149 -17 l-142 -6 -6 -28 c-7 -38 -51 -49 -74 -20 -10
12 -22 21 -28 21 -6 0 -11 10 -11 22 0 21 -2 21 -107 15 -58 -4 -166 -7 -240
-7 l-133 0 -1 -372 c-1 -205 -4 -425 -8 -488 l-6 -115 -32 -3 c-33 -3 -39 -14
-27 -47 6 -15 8 -15 25 1 36 32 49 12 49 -74 0 -178 -13 -352 -26 -352 -14 0
-14 -1 -13 113 l0 77 -35 0 c-69 0 -65 -38 -58 479 l5 468 -34 -5 c-32 -4 -33
-3 -15 11 18 14 19 15 1 24 -10 6 -27 8 -38 5 -18 -5 -20 -1 -15 42 l6 48 -35
-7 -35 -6 4 120 c3 120 3 121 -19 121 l-23 0 0 -1405 c0 -1106 3 -1410 12
-1426 10 -17 10 -23 1 -26 -17 -6 -17 -30 0 -36 9 -4 9 -6 0 -6 -10 -1 -13
-30 -13 -111 l0 -110 115 0 115 0 0 85 c0 72 3 85 16 85 13 0 15 6 9 33 -4 17
-9 94 -11 169 -3 108 -1 139 10 145 8 4 15 17 17 27 5 25 26 32 31 10 4 -23
76 -44 100 -30 13 8 22 7 34 -6 12 -12 24 -14 45 -8 18 5 29 4 32 -3 2 -6 9
-7 16 -3 7 5 49 9 94 10 l82 1 4 35 c4 32 4 33 10 10 6 -21 13 -25 46 -25 22
-1 51 -5 64 -9 16 -6 26 -4 32 5 6 10 9 11 9 2 0 -9 18 -13 55 -13 30 0 55 4
55 10 0 9 40 11 98 3 29 -4 32 -7 32 -38 0 -19 -3 -34 -7 -34 -24 4 -33 -4
-33 -30 0 -16 -6 -31 -14 -34 -8 -3 -15 -24 -17 -50 -3 -37 -1 -43 12 -40 9 3
20 0 23 -6 10 -16 32 -14 50 5 14 14 18 14 31 0 17 -16 20 -56 5 -56 -5 0 -10
-7 -10 -15 0 -11 -12 -15 -50 -15 -27 0 -50 -4 -50 -10 0 -19 -22 -10 -28 13
-5 17 -8 12 -13 -23 -5 -38 -6 -32 -7 33 -2 61 1 79 13 83 11 5 15 23 15 75 0
83 -5 87 -92 73 -54 -9 -58 -9 -58 9 0 19 -5 20 -77 13 -42 -3 -111 -6 -155
-6 -55 0 -77 -3 -76 -12 2 -6 -5 -14 -16 -16 -25 -5 -90 -73 -94 -98 -2 -10
-8 -21 -13 -22 -14 -6 -11 -149 4 -155 6 -3 -3 -8 -21 -12 -33 -8 -33 -8 -12
-27 16 -15 20 -31 20 -78 l0 -60 85 0 85 0 0 65 c0 51 3 65 15 65 8 0 15 9 15
20 0 11 -7 20 -15 20 -12 0 -15 13 -15 58 0 85 5 87 183 88 l147 0 0 -38 c0
-34 -3 -38 -32 -46 -31 -8 -34 -6 -41 20 -6 23 -13 28 -40 28 -26 0 -33 -4
-34 -20 -1 -13 4 -20 15 -20 20 0 42 -78 42 -151 0 -39 -4 -47 -25 -57 -34
-16 -32 -32 4 -32 39 0 72 44 66 86 -4 25 -3 27 7 13 7 -8 21 -18 31 -22 12
-4 17 -17 17 -42 0 -28 4 -35 19 -35 23 0 31 26 31 100 1 42 3 51 11 38 5 -10
20 -18 32 -18 23 0 49 -13 48 -24 -4 -26 2 -36 19 -36 15 0 22 -9 27 -30 5
-29 8 -30 57 -30 l51 0 -1 182 c-1 170 -1 175 6 68 4 -63 9 -145 11 -182 l4
-68 40 1 c22 0 34 3 28 6 -8 3 -13 24 -13 52 0 43 2 47 23 46 20 -2 22 -7 22
-53 l0 -52 353 0 352 0 0 44 c0 37 4 45 23 50 34 9 37 8 38 -16 l0 -23 9 23
c8 19 17 22 59 22 l50 0 -6 -34 c-3 -19 -1 -36 6 -40 7 -5 11 5 11 28 0 29 4
36 20 36 13 0 20 7 20 20 0 18 -8 20 -112 22 l-113 3 0 65 c0 36 -4 71 -8 77
-4 7 -3 21 3 32 5 11 10 40 10 65 0 32 5 48 18 55 14 8 15 13 5 30 -18 29 -17
31 17 31 l30 0 0 -75 c0 -60 3 -75 15 -75 9 0 15 9 15 24 0 16 7 26 23 30 12
3 24 1 25 -4 6 -18 34 -11 30 8 -2 13 -11 16 -36 14 -24 -3 -32 0 -32 13 0 8
-7 18 -15 21 -8 4 -13 10 -10 15 3 4 11 6 18 3 7 -2 52 -6 99 -7 78 -2 109 -9
97 -21 -2 -3 -27 -7 -54 -11 -57 -6 -57 -7 -49 -28 5 -13 16 -15 60 -11 59 7
61 5 45 -54 -7 -23 -6 -32 2 -32 20 0 57 30 57 46 0 8 7 14 15 14 8 0 15 5 15
11 0 7 -10 9 -25 7 -32 -7 -34 19 -2 32 l22 9 -22 7 c-28 8 -21 24 7 17 11 -3
20 -12 20 -19 0 -10 12 -14 43 -13 24 1 49 -1 55 -5 7 -4 12 -1 12 6 0 10 2
10 9 -1 7 -11 9 -11 14 0 4 10 6 9 6 -3 1 -16 23 -19 37 -5 14 14 24 7 24 -16
0 -18 -10 -28 -38 -41 -24 -11 -38 -24 -39 -38 -2 -16 3 -19 19 -15 13 4 26 0
32 -8 7 -9 31 -15 64 -16 51 -2 59 -12 17 -22 -18 -4 -18 -5 2 -6 17 -1 24 -9
29 -36 4 -25 11 -35 25 -35 15 0 19 -7 19 -39 0 -22 -4 -43 -10 -46 -5 -3 -10
-24 -10 -46 l0 -39 305 0 c216 0 305 3 305 11 0 6 -7 9 -15 5 -8 -3 -15 0 -15
7 0 11 -11 15 -55 19 -5 1 -20 -2 -31 -6 -18 -5 -22 -1 -29 26 -3 18 -8 50
-10 70 -3 33 0 38 27 47 46 16 64 13 76 -11 9 -19 11 -12 9 42 l-2 65 -32 3
c-25 2 -30 7 -26 19 5 14 1 15 -30 10 -37 -6 -37 -5 -43 34 -6 33 -10 39 -30
39 -24 0 -32 23 -16 45 12 17 62 18 62 1 0 -9 14 -18 35 -22 20 -3 49 -19 65
-34 l30 -28 0 34 c0 26 4 34 18 34 10 0 23 5 30 12 9 9 12 -2 12 -53 0 -45 3
-60 10 -49 5 8 10 59 10 113 0 96 3 103 34 91 14 -5 16 -38 16 -265 l0 -259
28 0 c15 0 43 4 62 10 23 7 36 6 41 -1 4 -6 20 -8 43 -4 26 5 36 12 36 26 0
12 -7 19 -20 19 -18 0 -20 7 -20 75 0 68 2 75 20 75 13 0 20 7 20 20 0 13 -7
20 -20 20 -18 0 -20 7 -20 75 0 68 2 75 20 75 19 0 20 7 20 130 l0 130 -29 0
c-28 0 -30 -3 -37 -45 -3 -25 -13 -50 -23 -55 -11 -7 -13 -12 -4 -17 6 -5 14
-29 18 -55 l7 -48 -31 0 c-17 0 -34 1 -38 3 -5 1 -6 32 -4 69 3 67 3 68 -23
68 -23 0 -26 4 -26 35 0 24 5 35 15 35 8 0 15 -4 15 -9 0 -5 7 -12 16 -15 8
-3 13 -2 10 3 -3 5 -1 23 5 40 11 30 13 31 70 31 l59 0 0 930 c0 820 -2 930
-15 930 -13 0 -15 26 -15 175 0 147 2 177 15 181 9 4 15 19 15 36 0 26 -2 29
-15 18 -8 -7 -15 -21 -15 -31 0 -11 -4 -19 -10 -19 -6 0 -10 -56 -10 -147 0
-175 -4 -196 -34 -188 -19 6 -20 5 -3 -8 24 -20 22 -24 -14 -31 -25 -5 -30
-10 -26 -26 3 -11 1 -20 -3 -20 -5 0 -5 -14 0 -31 13 -44 0 -200 -17 -206 -8
-3 -13 -20 -13 -43 0 -67 -11 -100 -32 -100 -17 0 -19 6 -17 38 1 20 1 51 0
67 -2 27 -3 26 -19 -19 -22 -65 -38 -68 -46 -10 -10 78 -8 97 10 90 13 -5 15
-2 10 16 -3 13 -6 105 -6 206 l0 182 -39 0 -40 0 -12 56 c-12 52 -11 58 6 70
10 8 31 14 47 14 l28 0 0 111 c0 90 -3 114 -17 127 -14 15 -47 17 -250 20
l-233 3 0 -25 c0 -35 -39 -35 -76 -1 -22 20 -37 25 -83 25 l-56 0 4 200 3 200
-111 0 -111 0 0 -92 c0 -128 -10 -198 -26 -198 -8 0 -14 9 -14 20 0 13 -7 20
-19 20 -13 0 -21 8 -23 23 -2 12 -10 22 -18 22 -8 0 -20 12 -27 28 -7 15 -19
27 -28 27 -8 0 -15 7 -15 16 0 9 -9 18 -20 21 -11 3 -23 16 -26 28 -3 13 -16
26 -29 29 -12 3 -25 14 -27 24 -6 23 -46 32 -143 32 l-73 0 9 -42 c14 -61 9
-68 -61 -68 l-60 0 0 55 c0 52 -1 55 -26 55 -25 0 -25 -1 -19 -55 l7 -55 -58
0 -59 0 3 55 4 55 -84 -1 c-51 -1 -93 -7 -110 -16z m302 -203 l0 -60 -54 0
-54 0 -6 43 c-10 67 -3 77 60 77 l54 0 0 -60z m170 15 c0 -33 -4 -45 -15 -45
-8 0 -15 -7 -15 -15 0 -11 -12 -15 -50 -15 l-50 0 0 60 0 60 65 0 65 0 0 -45z
m-1260 -280 c0 -31 3 -35 26 -35 23 0 25 -3 20 -25 -6 -23 -4 -24 24 -19 l30
7 0 -132 0 -131 -31 0 c-26 0 -29 -3 -24 -20 5 -16 2 -20 -15 -20 -13 0 -24
-9 -30 -25 -9 -25 -11 -25 -120 -25 l-110 0 0 -140 0 -140 -70 0 -70 0 0 370
0 370 185 0 185 0 0 -35z m324 -127 c4 -90 6 -256 5 -370 l-1 -208 -69 0 -69
0 0 349 c0 192 -3 356 -6 364 -6 17 16 23 92 26 l41 1 7 -162z m576 95 l0 -63
-165 0 -165 0 0 -57 c0 -32 -3 -68 -6 -80 l-6 -23 141 0 141 0 0 -66 0 -65
-137 3 -138 3 -2 -92 -3 -93 79 0 c43 0 119 -3 170 -7 l92 -6 -3 -61 -3 -61
-235 0 -235 0 0 367 0 368 238 -2 237 -2 0 -63z m534 31 c-6 -34 -5 -36 15
-29 19 6 21 3 21 -29 l0 -36 -160 0 -160 0 6 -26 c6 -24 5 -25 -15 -15 l-21
12 0 -201 c0 -193 1 -200 20 -200 13 0 20 -7 20 -20 0 -19 7 -20 155 -20 l155
0 0 -39 c0 -39 0 -40 -45 -47 -34 -5 -45 -11 -45 -24 0 -25 -36 -32 -167 -29
l-113 2 0 34 c0 26 -4 33 -20 33 -13 0 -20 7 -20 20 0 11 -7 20 -15 20 -8 0
-15 6 -15 14 0 8 -10 16 -22 18 -23 3 -23 6 -26 158 -2 85 0 192 3 237 6 73 9
82 28 85 13 2 23 13 27 28 5 21 11 24 34 22 27 -4 28 -2 24 32 l-4 36 173 0
174 0 -7 -36z m596 -29 l0 -65 -160 0 -160 0 0 -80 0 -80 135 0 135 0 0 -65 0
-65 -135 0 -135 0 0 -90 0 -90 63 0 c34 0 106 -3 160 -7 l97 -6 0 -64 0 -63
-235 0 -235 0 0 233 c0 129 3 295 7 370 l6 137 229 0 228 0 0 -65z m544 16
c11 -82 13 -81 -143 -81 -187 0 -181 2 -181 -76 0 -52 3 -62 15 -58 11 5 13 2
9 -10 -5 -14 7 -16 105 -16 l111 0 0 -39 c0 -35 2 -38 25 -33 21 3 25 0 25
-18 0 -17 4 -21 19 -17 27 7 31 -9 31 -129 0 -97 -1 -104 -20 -104 -12 0 -17
-5 -14 -14 3 -8 -4 -16 -20 -20 -21 -5 -26 -13 -26 -36 0 -36 -10 -38 -202
-42 l-138 -4 0 34 c0 32 -1 33 -30 27 -29 -6 -30 -6 -30 33 l0 39 61 7 c34 3
106 6 160 6 81 0 99 3 99 15 0 8 5 15 10 15 6 0 10 27 10 63 0 46 -3 58 -11
47 -8 -11 -9 -8 -4 15 l5 30 -110 -1 -110 -2 -6 35 c-5 25 -9 31 -19 23 -16
-13 -25 -2 -25 32 0 26 -3 28 -36 28 -36 0 -36 1 -30 31 3 17 6 65 6 106 0 75
0 75 25 69 22 -6 25 -3 25 19 0 27 18 33 38 13 9 -9 12 -4 12 25 l0 37 179 0
178 0 7 -49z m-3178 -256 c4 -9 3 -63 -1 -120 -5 -80 -10 -105 -21 -105 -9 0
-14 13 -15 38 l-2 37 -6 -35 -7 -35 -7 49 c-11 79 -9 116 8 116 10 0 15 10 15
28 0 41 24 59 36 27z m-4 -267 c3 -7 2 -50 -1 -95 -4 -60 -9 -80 -18 -75 -9 6
-19 123 -14 175 1 12 29 8 33 -5z m-46 -155 c-10 -10 -19 5 -10 18 6 11 8 11
12 0 2 -7 1 -15 -2 -18z m45 -99 c-3 -67 -3 -66 -22 -59 -10 4 -13 19 -11 53
4 60 9 75 24 70 8 -3 11 -24 9 -64z m1699 10 c0 -24 4 -32 14 -28 13 5 26 -58
26 -135 0 -30 -2 -33 -24 -27 -26 6 -40 -12 -30 -39 5 -12 -5 -15 -56 -15 -61
0 -61 0 -58 27 2 22 -2 28 -22 33 -24 6 -25 10 -28 82 l-3 77 28 3 c22 2 28 9
30 28 0 14 1 27 2 30 1 3 28 3 61 2 l60 -4 0 -34z m280 -4 l0 -30 -65 0 c-64
0 -65 0 -65 -27 0 -27 1 -28 49 -25 43 3 50 1 56 -18 9 -30 1 -35 -58 -35
l-52 0 -1 -45 c0 -41 -3 -45 -27 -48 l-27 -3 0 130 0 131 95 0 95 0 0 -30z
m-645 -91 c4 -6 5 -12 3 -15 -3 -2 -246 -6 -541 -9 -537 -6 -537 -6 -537 14 0
21 2 21 534 21 368 0 537 -3 541 -11z m1845 -9 c0 -20 -7 -20 -495 -20 -488 0
-495 0 -495 20 0 20 7 20 495 20 488 0 495 0 495 -20z m131 -61 c6 -70 1 -88
-23 -89 -5 0 -8 39 -8 86 0 64 3 85 13 82 7 -3 14 -33 18 -79z m-3311 -39 c0
-73 -3 -90 -15 -90 -12 0 -15 17 -15 90 0 73 3 90 15 90 12 0 15 -17 15 -90z
m1486 -71 c3 -6 1 -16 -5 -22 -18 -18 -13 -27 13 -27 29 0 56 -24 56 -49 0
-14 6 -17 25 -13 l25 4 0 -260 c0 -143 -3 -273 -6 -289 -5 -28 -9 -30 -44 -26
-38 4 -39 3 -42 -34 -4 -48 -13 -51 -204 -52 -180 -1 -214 4 -214 31 0 22 -16
41 -43 51 -10 4 -15 11 -12 17 3 5 -1 10 -9 10 -14 0 -16 33 -16 279 l0 279
33 7 c17 5 37 9 42 9 13 1 23 25 24 58 1 26 3 27 64 31 152 8 306 7 313 -4z
m-1066 -149 l0 -150 155 0 155 0 2 128 c1 70 2 137 2 150 0 21 4 22 73 22 l73
0 0 -379 0 -378 -52 -7 c-108 -12 -98 -30 -98 163 l0 170 -149 0 -148 1 -7
-31 c-3 -17 -6 -91 -6 -164 l0 -133 -76 -7 c-41 -4 -78 -4 -82 0 -4 3 -7 177
-7 386 l0 379 82 0 83 0 0 -150z m1480 105 l0 -46 34 6 c34 7 34 6 33 -26 -2
-32 -1 -34 31 -31 31 3 32 2 32 -32 0 -27 4 -36 16 -36 14 0 14 -3 4 -15 -11
-13 -7 -15 24 -15 l36 0 0 -55 c0 -52 1 -55 26 -55 21 0 24 4 19 20 -5 15 0
22 21 30 23 9 26 15 20 40 -5 27 -3 30 18 30 14 0 26 7 30 18 3 9 10 24 15 32
5 8 12 23 15 34 4 12 13 17 26 13 16 -4 20 0 20 18 0 20 7 25 35 31 33 6 35 9
35 45 l0 39 78 0 77 0 -5 -382 -5 -383 -71 -3 c-52 -2 -73 1 -76 10 -2 7 -1
81 3 163 14 317 9 381 -22 311 -7 -14 -17 -22 -25 -19 -9 3 -14 -2 -14 -16 0
-12 -4 -21 -10 -21 -5 0 -10 -13 -10 -29 0 -24 -3 -28 -20 -24 -16 4 -20 0
-20 -20 0 -13 -3 -39 -6 -56 -5 -25 -11 -31 -31 -31 -23 0 -25 -3 -20 -30 4
-16 2 -32 -3 -35 -6 -3 -10 -17 -10 -30 0 -23 -3 -24 -65 -22 l-65 2 0 44 c0
36 -3 42 -16 37 -13 -5 -15 -1 -12 19 4 17 1 25 -8 25 -16 0 -18 28 -4 64 11
30 -3 44 -26 25 -22 -18 -29 -3 -27 52 2 45 0 50 -17 44 -11 -3 -22 0 -27 8
-4 8 -18 19 -30 26 l-23 12 0 -257 0 -256 -72 7 c-40 4 -76 9 -80 12 -10 5
-10 591 -1 686 l6 67 83 0 84 0 0 -45z m1280 -25 l0 -70 -185 0 -185 0 0 -79
0 -78 50 5 c27 2 97 1 155 -3 l105 -7 0 -64 0 -64 -155 0 -155 0 0 -90 0 -90
154 0 c84 0 168 -3 185 -6 l31 -6 0 -68 0 -67 -65 -7 c-86 -9 -441 -3 -451 7
-5 5 -9 177 -9 383 l0 374 262 0 263 0 0 -70z m-3182 -125 c-5 -84 -25 -55
-32 45 -3 47 -10 86 -16 88 -5 2 -10 8 -10 14 0 6 6 8 13 5 8 -3 20 -1 28 4
11 7 15 -2 17 -46 2 -30 2 -80 0 -110z m107 -5 c0 -59 -1 -60 -27 -60 -23 0
-28 -4 -28 -25 0 -14 -5 -25 -11 -25 -7 0 -9 9 -5 23 3 12 6 50 6 85 l0 62 33
0 32 0 0 -60z m3275 0 c0 -11 -7 -20 -15 -20 -18 0 -19 12 -3 28 16 16 18 15
18 -8z m-70 -28 c0 -10 -7 -19 -15 -19 -8 0 -15 9 -15 19 0 10 7 18 15 18 8 0
15 -8 15 -18z m-3243 -117 c-4 -8 -11 -15 -17 -15 -7 0 -7 6 0 21 13 23 26 19
17 -6z m93 -23 c0 -26 -15 -52 -31 -52 -10 0 -22 57 -14 70 3 5 15 10 26 10
14 0 19 -7 19 -28z m3350 -101 c0 -21 3 -52 6 -68 l6 -30 -54 5 c-29 2 -53 5
-54 6 -1 0 1 29 4 64 l4 62 44 0 44 0 0 -39z m-3440 -23 c0 -12 -1 -19 -3 -17
-1 2 -9 12 -16 22 -12 14 -11 17 3 17 10 0 16 -8 16 -22z m0 -103 c0 -58 -2
-65 -20 -65 -18 0 -20 7 -20 75 0 73 1 75 20 65 17 -9 20 -21 20 -75z m-70 -4
c0 -5 -9 -7 -20 -4 -11 3 -20 7 -20 9 0 2 9 4 20 4 11 0 20 -4 20 -9z m150
-11 c0 -13 -28 -25 -38 -16 -3 4 0 11 8 16 20 13 30 12 30 0z m-156 -68 c-3
-174 -5 -206 -14 -192 -15 24 -13 233 3 228 6 -3 12 -19 11 -36z m3320 -47 c8
-113 -1 -195 -23 -195 -10 0 -21 14 -28 38 -6 20 -15 45 -18 55 -6 13 -2 17
14 17 19 0 21 6 21 63 0 129 24 145 34 22z m-3154 61 c0 -8 -4 -18 -10 -21 -5
-3 -10 -4 -10 -1 0 2 -3 11 -6 20 -4 11 -1 16 10 16 9 0 16 -6 16 -14z m3354
-51 l1 -60 -49 0 -49 0 -1 63 -2 63 49 -3 49 -3 2 -60z m-3477 -9 c-4 -9 -11
-16 -17 -16 -11 0 -14 33 -3 44 11 10 26 -11 20 -28z m43 10 c0 -14 -5 -28
-10 -31 -13 -8 -24 20 -16 40 9 24 26 17 26 -9z m66 -52 c4 -14 2 -30 -5 -37
-7 -7 -11 -81 -11 -231 0 -120 -2 -217 -4 -215 -2 2 -6 118 -9 257 -4 212 -3
252 9 252 7 0 17 -12 20 -26z m-80 -109 c0 -86 0 -87 -3 -12 -3 69 -6 77 -23
77 -20 0 -26 11 -13 24 4 4 14 5 23 4 12 -3 15 -20 16 -93z m3446 -45 c3 -30
5 -57 3 -61 -2 -3 -23 -3 -47 0 l-43 6 -3 52 c-3 47 -1 52 20 56 55 11 63 5
70 -53z m-3325 14 c-3 -3 -12 -4 -19 -1 -8 3 -5 6 6 6 11 1 17 -2 13 -5z m33
2 c0 -3 -4 -8 -10 -11 -5 -3 -10 -1 -10 4 0 6 5 11 10 11 6 0 10 -2 10 -4z
m280 -103 c0 -41 -18 -77 -27 -55 -2 6 -17 12 -33 12 -24 0 -29 -5 -32 -27 -2
-22 -8 -28 -28 -28 -14 0 -28 -4 -32 -10 -4 -5 -8 9 -8 32 0 23 -3 49 -7 58
-5 15 -2 16 28 10 19 -5 41 -9 49 -10 9 0 20 -4 27 -8 12 -7 23 13 23 44 0 12
7 19 20 19 16 0 20 -7 20 -37z m26 -11 c-11 -10 -15 4 -8 28 l7 25 3 -23 c2
-13 1 -26 -2 -30z m-246 34 c0 -3 -4 -8 -10 -11 -5 -3 -10 -1 -10 4 0 6 5 11
10 11 6 0 10 -2 10 -4z m2691 -23 c-12 -20 -14 -14 -5 12 4 9 9 14 11 11 3 -2
0 -13 -6 -23z m-2594 11 c-3 -3 -12 -4 -19 -1 -8 3 -5 6 6 6 11 1 17 -2 13 -5z
m2920 -24 c-4 -17 -2 -30 3 -30 20 0 9 -28 -12 -34 -42 -11 -88 -7 -88 8 0 8
-3 21 -6 29 -4 11 1 13 18 10 18 -3 27 2 38 21 7 14 22 26 33 26 16 0 19 -5
14 -30z m-3092 0 c7 -21 0 -40 -16 -40 -5 0 -9 14 -9 30 0 34 15 40 25 10z
m2828 3 c-7 -2 -21 -2 -30 0 -10 3 -4 5 12 5 17 0 24 -2 18 -5z m-2763 -12 c0
-6 -9 -9 -20 -8 -11 1 -20 5 -20 9 0 4 9 8 20 8 11 0 20 -4 20 -9z m1446 -24
c3 -8 -4 -38 -16 -67 -11 -29 -18 -60 -15 -69 2 -9 6 -37 6 -64 2 -47 3 -47
34 -45 26 1 31 6 27 20 -2 10 0 18 6 18 5 0 12 -9 15 -20 6 -23 32 -27 40 -6
7 17 56 9 64 -10 3 -8 11 -14 19 -14 7 0 16 -15 19 -33 9 -45 2 -113 -10 -107
-5 3 -9 18 -7 34 2 16 0 32 -5 35 -5 3 -16 18 -25 32 l-17 27 -204 -5 c-116
-4 -206 -2 -209 3 -9 14 4 114 14 114 5 0 7 -9 3 -20 -4 -12 1 -30 12 -44 15
-21 27 -25 63 -26 44 0 46 1 48 30 2 23 -2 30 -15 31 -10 0 -1 7 19 17 26 12
39 25 43 44 4 15 11 28 16 28 5 0 9 9 9 19 0 30 11 51 26 51 8 0 14 9 14 20 0
23 18 27 26 7z m1332 -10 c3 -12 -4 -17 -22 -17 -28 0 -29 1 -20 23 7 20 38
15 42 -6z m-2204 -18 c5 -5 -6 -6 -25 -3 -30 5 -37 2 -46 -18 l-12 -23 0 23
c-1 18 -7 22 -31 22 -16 0 -30 4 -30 10 0 11 131 2 144 -11z m610 -46 c6 -24
15 -33 30 -33 17 0 18 -2 6 -10 -26 -17 -50 -12 -50 11 0 15 -5 20 -22 17 -22
-3 -23 -7 -23 -95 l0 -93 -47 0 c-41 0 -48 -3 -48 -20 0 -12 -7 -20 -16 -20
-12 0 -15 -11 -14 -57 2 -78 1 -85 -8 -79 -8 5 -24 145 -23 199 0 9 -4 17 -9
17 -10 0 -20 -26 -20 -55 0 -39 -11 -55 -36 -55 -24 0 -24 1 -23 98 0 91 1 96
16 75 8 -13 22 -23 29 -23 8 0 14 -4 14 -9 0 -5 7 -11 14 -14 10 -4 13 -1 9 9
-3 7 -1 14 3 15 5 0 18 2 29 4 11 2 22 -1 26 -7 10 -15 49 1 50 20 0 11 3 12
6 5 11 -29 20 -9 21 48 2 70 14 91 51 87 19 -2 28 -11 35 -35z m-597 -5 c-3
-7 -5 -2 -5 12 0 14 2 19 5 13 2 -7 2 -19 0 -25z m1353 -43 c0 -55 -8 -65 -51
-65 -16 0 -19 7 -19 45 0 41 2 45 25 45 19 0 25 5 25 21 0 11 5 17 10 14 6 -3
10 -30 10 -60z m-1050 24 c0 -6 7 -9 15 -5 8 3 15 1 15 -4 0 -13 -37 -13 -45
0 -11 18 -44 -8 -54 -43 -9 -31 -9 -31 -10 16 l-1 47 40 0 c23 0 40 -5 40 -11z
m-1090 -26 c0 -19 -3 -24 -10 -17 -6 6 -8 18 -4 27 9 24 14 21 14 -10z m825 9
c-3 -3 -11 0 -18 7 -9 10 -8 11 6 5 10 -3 15 -9 12 -12z m-525 -32 c0 -43 -14
-54 -24 -17 -10 37 -7 57 9 57 11 0 15 -11 15 -40z m350 -36 c0 -41 -4 -73 -9
-70 -4 3 -7 36 -5 73 3 79 3 73 9 73 3 0 5 -34 5 -76z m60 66 c0 -5 -5 -10
-11 -10 -5 0 -7 5 -4 10 3 6 8 10 11 10 2 0 4 -4 4 -10z m98 -42 c-7 -20 -48
-23 -48 -4 0 11 9 16 26 16 16 0 24 -5 22 -12z m699 6 c-3 -3 -12 -4 -19 -1
-8 3 -5 6 6 6 11 1 17 -2 13 -5z m-637 -69 c0 -37 -4 -65 -10 -65 -5 0 -10 19
-10 43 0 23 -3 52 -6 65 -5 16 -2 22 10 22 13 0 16 -12 16 -65z m1604 -204 c6
-17 5 -22 -5 -19 -11 4 -14 37 -15 149 l-1 144 7 -125 c4 -69 10 -136 14 -149z
m-2558 222 c-11 -11 -19 6 -11 24 8 17 8 17 12 0 3 -10 2 -21 -1 -24z m793 20
c0 -11 -3 -13 -6 -5 -2 6 -9 10 -14 6 -5 -3 -9 0 -9 5 0 6 7 11 15 11 8 0 15
-8 14 -17z m761 3 c0 -2 -7 -9 -15 -16 -13 -11 -14 -10 -9 4 5 14 24 23 24 12z
m-440 -191 c0 -90 -4 -145 -10 -145 -6 0 -10 55 -10 145 0 90 4 145 10 145 6
0 10 -55 10 -145z m1494 54 c-14 -23 -24 -4 -23 44 l1 52 14 -44 c7 -24 11
-48 8 -52z m-1573 38 c-8 -8 -11 -5 -11 9 0 27 14 41 18 19 2 -9 -1 -22 -7
-28z m2219 27 c10 -11 23 -14 52 -9 37 7 38 6 38 -24 0 -29 -2 -31 -37 -31
-28 0 -34 3 -23 10 13 9 13 10 0 11 -8 1 -27 0 -42 -1 -25 -1 -28 2 -28 29 0
34 19 41 40 15z m-215 -42 c1 -34 -3 -42 -17 -42 -15 0 -18 8 -18 46 0 38 3
45 18 42 13 -3 17 -13 17 -46z m93 42 c15 -4 22 -14 22 -31 0 -21 -4 -24 -27
-21 -22 2 -29 9 -31 31 -4 29 0 30 36 21z m-193 -13 c3 -6 1 -20 -5 -31 -9
-17 -8 -20 9 -20 15 0 20 -8 23 -32 3 -29 6 -33 33 -33 31 0 35 -4 35 -30 0
-10 -10 -15 -31 -15 -31 0 -31 0 -25 -40 5 -31 3 -40 -8 -40 -11 0 -16 22 -21
85 -7 81 -9 85 -31 85 -22 0 -24 -4 -24 -51 l0 -52 -80 7 -80 6 0 -80 c0 -67
-3 -80 -16 -80 -14 0 -15 9 -9 60 6 56 6 60 -13 60 -29 0 -37 18 -10 22 15 2
22 9 22 21 -1 12 10 24 32 35 19 9 34 23 33 31 -1 9 -1 33 0 53 1 34 4 37 34
40 86 8 126 8 132 -1z m175 -55 c0 -3 -4 -8 -10 -11 -5 -3 -10 -1 -10 4 0 6 5
11 10 11 6 0 10 -2 10 -4z m-1923 -42 c-3 -3 -12 -4 -19 -1 -8 3 -5 6 6 6 11
1 17 -2 13 -5z m2203 -61 c0 -32 -4 -43 -15 -43 -11 0 -15 12 -15 48 0 27 3
52 7 55 12 12 23 -17 23 -60z m-2196 41 c26 -10 18 -24 -14 -24 -20 0 -30 5
-30 15 0 16 17 19 44 9z m306 -4 c0 -5 -22 -10 -50 -10 -27 0 -50 5 -50 10 0
6 23 10 50 10 28 0 50 -4 50 -10z m1642 -25 c-4 -22 -9 -25 -36 -22 -17 2 -29
8 -26 13 3 5 13 8 23 7 9 -2 17 4 17 12 0 8 6 15 14 15 9 0 12 -8 8 -25z
m-1956 -32 c-10 -10 -19 5 -10 18 6 11 8 11 12 0 2 -7 1 -15 -2 -18z m1201 21
c-3 -3 -12 -4 -19 -1 -8 3 -5 6 6 6 11 1 17 -2 13 -5z m233 -75 c0 -44 -1 -46
-26 -41 -23 4 -25 8 -23 51 2 30 8 48 18 52 22 9 31 -9 31 -62z m-1683 29 c-3
-7 -5 -2 -5 12 0 14 2 19 5 13 2 -7 2 -19 0 -25z m1428 22 c3 -5 1 -10 -4 -10
-6 0 -11 5 -11 10 0 6 2 10 4 10 3 0 8 -4 11 -10z m1175 0 c0 -5 -4 -10 -10
-10 -5 0 -10 5 -10 10 0 6 5 10 10 10 6 0 10 -4 10 -10z m-1110 -4 c0 -3 -4
-8 -10 -11 -5 -3 -10 -1 -10 4 0 6 5 11 10 11 6 0 10 -2 10 -4z m-1234 -15
c-4 -5 0 -12 6 -14 7 -3 3 -6 -9 -6 -14 -1 -23 5 -23 14 0 8 7 15 16 15 8 0
13 -4 10 -9z m1682 -7 c12 -4 22 -13 22 -20 0 -17 -105 -20 -115 -4 -16 26 35
39 93 24z m-1592 -60 c5 -36 3 -49 -10 -62 -15 -15 -16 -12 -16 46 0 72 16 82
26 16z m167 39 c-7 -2 -21 -2 -30 0 -10 3 -4 5 12 5 17 0 24 -2 18 -5z m300 0
c-13 -2 -33 -2 -45 0 -13 2 -3 4 22 4 25 0 35 -2 23 -4z m1723 -40 c-6 -133
-3 -123 -36 -123 l-30 0 0 79 c0 79 0 80 28 83 38 5 39 3 38 -39z m-96 -34 c0
-44 -4 -68 -10 -64 -5 3 -10 35 -10 71 0 36 4 64 10 64 6 0 10 -30 10 -71z
m-2160 -63 c0 -112 0 -114 -24 -118 -22 -4 -24 -1 -30 49 -9 81 3 181 23 186
9 2 19 2 24 0 4 -2 7 -55 7 -117z m1450 84 c0 -5 -2 -10 -4 -10 -3 0 -8 5 -11
10 -3 6 -1 10 4 10 6 0 11 -4 11 -10z m-1620 -70 c0 -16 -4 -30 -10 -30 -5 0
-10 14 -10 30 0 17 5 30 10 30 6 0 10 -13 10 -30z m2054 -32 c5 -21 3 -28 -8
-28 -21 0 -25 11 -19 43 6 32 17 25 27 -15z m-1820 -11 c-3 -9 -10 -17 -15
-17 -11 0 -12 34 -2 44 11 11 24 -9 17 -27z m-484 -57 c0 -42 -11 -50 -32 -24
-7 8 -21 23 -30 32 -21 19 -8 32 35 32 25 0 27 -3 27 -40z m1934 14 c8 -20 8
-20 -29 -28 -24 -5 -26 -4 -12 4 9 6 17 18 17 25 0 20 16 19 24 -1z m736 -64
c0 -78 -1 -80 -24 -80 -39 0 -48 22 -41 95 7 63 8 65 36 65 l29 0 0 -80z
m-2190 -20 c0 -53 -4 -90 -10 -90 -11 0 -14 162 -3 173 12 13 13 7 13 -83z
m193 70 c22 0 27 -4 27 -25 0 -23 -3 -25 -50 -25 -49 0 -50 0 -50 31 0 28 3
31 23 25 12 -3 34 -6 50 -6z m1907 -50 c0 -33 -4 -60 -10 -60 -6 0 -10 27 -10
60 0 33 4 60 10 60 6 0 10 -27 10 -60z m-1621 44 c20 -4 31 -12 31 -24 0 -14
-8 -17 -37 -15 -60 3 -61 4 -56 25 6 22 14 23 62 14z m-709 -71 c0 -21 -5 -45
-10 -53 -8 -13 -10 -12 -10 3 0 9 -3 17 -7 17 -5 0 -19 9 -32 19 l-24 18 29
16 c46 24 54 21 54 -20z m-1050 -33 l0 -40 -48 0 c-27 0 -51 2 -53 5 -3 2 -3
20 -1 40 4 35 5 35 53 35 l49 0 0 -40z"/>
<path d="M542 2803 l3 -98 73 -3 c67 -3 72 -1 72 18 0 13 7 20 20 20 18 0 20
6 19 78 -1 42 -3 69 -6 60 -6 -24 -20 -23 -28 2 -6 18 -15 20 -81 20 l-75 0 3
-97z"/>
<path d="M121 2614 c0 -11 3 -14 6 -6 3 7 2 16 -1 19 -3 4 -6 -2 -5 -13z"/>
<path d="M1773 2173 c-36 -5 -39 -13 -27 -85 7 -41 28 -54 70 -44 22 6 24 11
24 71 0 71 5 67 -67 58z"/>
<path d="M1462 1812 c-87 -2 -102 -5 -92 -16 15 -20 -4 -30 -30 -16 -20 11
-20 8 -20 -148 0 -88 3 -193 6 -235 l7 -77 118 0 c99 0 119 3 119 15 0 18 17
20 23 3 11 -32 15 11 17 192 4 260 5 249 -22 242 -18 -4 -20 -2 -16 16 4 12 3
23 0 24 -4 2 -54 2 -110 0z"/>
<path d="M3605 1472 c-3 -3 -5 -16 -5 -29 0 -19 5 -23 30 -23 25 0 30 4 30 24
0 17 -7 25 -25 28 -13 3 -27 3 -30 0z"/>
<path d="M3590 1229 c0 -27 3 -30 28 -27 21 2 28 9 30 31 3 24 0 27 -27 27
-28 0 -31 -3 -31 -31z"/>
<path d="M3618 1032 c-10 -2 -18 -12 -18 -23 0 -14 7 -19 30 -19 23 0 30 5 30
19 0 21 -16 29 -42 23z"/>
<path d="M1811 751 c-12 -8 -12 -12 -2 -25 9 -11 10 -16 2 -16 -6 0 -11 -16
-11 -35 0 -24 5 -35 15 -35 12 0 15 13 15 60 0 33 -1 60 -2 60 -2 0 -9 -4 -17
-9z"/>
<path d="M3368 3223 c7 -3 16 -2 19 1 4 3 -2 6 -13 5 -11 0 -14 -3 -6 -6z"/>
<path d="M70 2945 c0 -38 3 -45 20 -45 17 0 20 7 20 45 0 38 -3 45 -20 45 -17
0 -20 -7 -20 -45z"/>
<path d="M261 1947 c1 -107 14 -138 22 -58 10 94 9 118 -8 125 -13 4 -15 -7
-14 -67z"/>
<path d="M3545 590 c3 -5 8 -10 11 -10 2 0 4 5 4 10 0 6 -5 10 -11 10 -5 0 -7
-4 -4 -10z"/>
<path d="M3693 315 c0 -27 2 -38 4 -22 2 15 2 37 0 50 -2 12 -4 0 -4 -28z"/>
<path d="M2173 275 c0 -22 2 -30 4 -17 2 12 2 30 0 40 -3 9 -5 -1 -4 -23z"/>
<path d="M2302 288 c6 -18 28 -21 28 -4 0 9 -7 16 -16 16 -9 0 -14 -5 -12 -12z"/>
<path d="M2310 215 c0 -8 5 -15 10 -15 6 0 10 7 10 15 0 8 -4 15 -10 15 -5 0
-10 -7 -10 -15z"/>
<path d="M2130 200 c0 -5 7 -10 16 -10 8 0 12 5 9 10 -3 6 -10 10 -16 10 -5 0
-9 -4 -9 -10z"/>
<path d="M2640 196 c0 -2 7 -6 15 -10 8 -3 15 -1 15 4 0 6 -7 10 -15 10 -8 0
-15 -2 -15 -4z"/>
<path d="M2479 154 c-1 -5 -1 -12 0 -16 0 -5 -8 -8 -19 -8 -18 0 -19 -3 -10
-20 13 -25 40 -26 41 -2 0 13 2 12 9 -5 11 -28 12 -28 53 -6 l32 18 -27 3
c-16 2 -28 9 -28 18 0 8 -4 14 -9 14 -5 0 -16 3 -25 6 -9 3 -17 2 -17 -2z"/>
<path d="M3419 105 c-6 -40 -4 -53 7 -43 3 3 4 23 2 44 l-3 39 -6 -40z"/>
<path d="M3350 64 c0 -9 7 -14 17 -12 25 5 28 28 4 28 -12 0 -21 -6 -21 -16z"/>
<path d="M2451 44 c0 -11 3 -14 6 -6 3 7 2 16 -1 19 -3 4 -6 -2 -5 -13z"/>
</g>
</svg>
